<svg id="Layer_1" data-name="Layer 1" xmlns="http://www.w3.org/2000/svg" viewBox="0 0 140 40"><defs><style>.cls-1,.cls-2,.cls-3,.cls-4{fill:#fff;}.cls-1{opacity:0.7;}.cls-3{opacity:0.6;}.cls-4{opacity:0.4;}</style></defs><title>YJ-Web-Icons</title><path class="cls-1" d="M133.73.1h-2.52a.63.63,0,0,0-.63.63V6.87l-5.32,3.07a.63.63,0,0,0-.23.86L126.29,13a.63.63,0,0,0,.86.23l7.21-4.16V.72A.63.63,0,0,0,133.73.1Z"/><path class="cls-2" d="M138.66,2.94a.63.63,0,0,0-.86-.23l-3.44,2-1.57.91a.63.63,0,0,1-.63,0l-1.57-.91-3.44-2a.63.63,0,0,0-.86.23L125,5.12a.63.63,0,0,0,.23.86l3.44,2,1.89,1.09V15.2a.63.63,0,0,0,.63.63h2.52a.63.63,0,0,0,.63-.63V9.05L136.25,8l3.44-2a.63.63,0,0,0,.23-.86Z"/><path class="cls-3" d="M135.3,11.78l2.49,1.44a.63.63,0,0,0,.86-.23l1.26-2.18a.63.63,0,0,0-.23-.86l-2.49-1.44L135.3,9.6Z"/><polygon class="cls-4" points="135.3 9.6 137.19 8.51 136.25 7.96 134.36 9.05 134.36 11.23 135.3 11.78 135.3 9.6"/><path class="cls-2" d="M59,32.19a7.4,7.4,0,1,1,7.4-7.4A7.4,7.4,0,0,1,59,32.19Zm0-11a3.62,3.62,0,1,0,3.62,3.62A3.62,3.62,0,0,0,59,21.18Z"/><path class="cls-2" d="M116.87,32.19a7.4,7.4,0,1,1,7.4-7.4A7.4,7.4,0,0,1,116.87,32.19Zm0-11a3.62,3.62,0,1,0,3.62,3.62A3.62,3.62,0,0,0,116.87,21.18Z"/><path class="cls-2" d="M47.82,32H45.3a.63.63,0,0,1-.63-.63V24.3a3,3,0,0,0-2.7-3,2.9,2.9,0,0,0-3.1,2.89v7.21a.63.63,0,0,1-.63.63H35.72a.63.63,0,0,1-.63-.63v-7a6.78,6.78,0,0,1,6.42-6.83,6.68,6.68,0,0,1,6.93,6.67v7.21A.63.63,0,0,1,47.82,32Z"/><path class="cls-2" d="M66.39,39.9q.33,0,.67,0a6.78,6.78,0,0,0,6.27-6.82V11.87a.63.63,0,0,0-.63-.63H70.18a.63.63,0,0,0-.63.63V33.13a3,3,0,0,1-2.72,3H64.28a.63.63,0,0,0-.63.63v2.53a.63.63,0,0,0,.63.63Z"/><path class="cls-2" d="M25,32A6.78,6.78,0,0,1,18.6,25.2v-7a.63.63,0,0,1,.63-.63h2.52a.63.63,0,0,1,.63.63v7.11a3,3,0,0,0,2.7,3,2.9,2.9,0,0,0,3.1-2.89V18.15a.63.63,0,0,1,.63-.63h2.52a.63.63,0,0,1,.63.63v7.21A6.68,6.68,0,0,1,25,32Z"/><path class="cls-2" d="M9.67,18.7a.63.63,0,0,1-1,0L4.25,12.62a.63.63,0,0,0-.51-.26H.63a.63.63,0,0,0-.51,1l6.7,9.23.45.62v8.2A.63.63,0,0,0,7.9,32h2.52A.63.63,0,0,0,11,31.4V23.2l.45-.62,6.93-9.22a.63.63,0,0,0-.5-1H14.76a.63.63,0,0,0-.5.25Z"/><path class="cls-2" d="M105.69,32h-2.52a.63.63,0,0,1-.63-.63V24.3a3,3,0,0,0-2.7-3,2.9,2.9,0,0,0-3.1,2.89v7.21a.63.63,0,0,1-.63.63H93.6a.63.63,0,0,1-.63-.63v-7a6.78,6.78,0,0,1,6.42-6.83,6.68,6.68,0,0,1,6.93,6.67v7.21A.63.63,0,0,1,105.69,32Z"/><path class="cls-2" d="M82.89,32a6.78,6.78,0,0,1-6.42-6.83v-7a.63.63,0,0,1,.63-.63h2.52a.63.63,0,0,1,.63.63v7.11a3,3,0,0,0,2.7,3A2.9,2.9,0,0,0,86,25.36V18.15a.63.63,0,0,1,.63-.63h2.52a.63.63,0,0,1,.63.63v7.21A6.68,6.68,0,0,1,82.89,32Z"/></svg>